<?xml version="1.0" encoding="UTF-8"?>
<!DOCTYPE svg PUBLIC "-//W3C//DTD SVG 1.1//EN" "http://www.w3.org/Graphics/SVG/1.1/DTD/svg11.dtd">
<svg xmlns="http://www.w3.org/2000/svg" version="1.1" width="32px" height="32px" style="shape-rendering:geometricPrecision; text-rendering:geometricPrecision; image-rendering:optimizeQuality; fill-rule:evenodd; clip-rule:evenodd" xmlns:xlink="http://www.w3.org/1999/xlink">
<g><path style="opacity:0.802" fill="#017cf5" d="M 31.5,13.5 C 31.5,16.5 31.5,19.5 31.5,22.5C 28.8957,26.8875 25.5624,27.5542 21.5,24.5C 23.1765,23.8166 23.8432,22.4832 23.5,20.5C 24.7079,21.2341 26.0413,21.5674 27.5,21.5C 27.6989,18.059 27.1989,14.7256 26,11.5C 23.3598,7.54305 20.8598,7.54305 18.5,11.5C 16.9519,11.1788 16.2852,10.1788 16.5,8.5C 20.4571,3.30016 24.6238,3.30016 29,8.5C 29.7568,10.3146 30.5902,11.9812 31.5,13.5 Z"/></g>
<g><path style="opacity:0.908" fill="#026ae4" d="M 16.5,8.5 C 16.2852,10.1788 16.9519,11.1788 18.5,11.5C 19.9131,14.6612 21.5797,17.6612 23.5,20.5C 23.8432,22.4832 23.1765,23.8166 21.5,24.5C 19.4776,22.4687 17.8109,20.1354 16.5,17.5C 15.8553,15.1737 14.522,13.507 12.5,12.5C 10.0474,8.60045 7.54737,8.60045 5,12.5C 4.78997,14.0581 4.28997,15.3915 3.5,16.5C 2.5041,16.4142 1.67076,16.7476 1,17.5C 0.506489,19.1341 0.339822,20.8008 0.5,22.5C 0.166667,22.5 -0.166667,22.5 -0.5,22.5C -0.5,19.5 -0.5,16.5 -0.5,13.5C 2.94213,3.93598 8.6088,2.26931 16.5,8.5 Z M 12.5,12.5 C 11.2347,15.5248 9.56803,18.3582 7.5,21C 4.0699,21.6378 2.73656,20.1378 3.5,16.5C 4.28997,15.3915 4.78997,14.0581 5,12.5C 7.54737,8.60045 10.0474,8.60045 12.5,12.5 Z"/></g>
<g><path style="opacity:0.852" fill="#007df8" d="M 12.5,12.5 C 14.522,13.507 15.8553,15.1737 16.5,17.5C 15.5041,17.4142 14.6708,17.7476 14,18.5C 12.3228,23.8789 8.82279,26.3789 3.5,26C 1.5743,25.5776 0.574295,24.4109 0.5,22.5C 0.339822,20.8008 0.506489,19.1341 1,17.5C 1.67076,16.7476 2.5041,16.4142 3.5,16.5C 2.73656,20.1378 4.0699,21.6378 7.5,21C 9.56803,18.3582 11.2347,15.5248 12.5,12.5 Z"/></g>
</svg>
